<svg id="Favicon" xmlns="http://www.w3.org/2000/svg" viewBox="0 0 500 500"><defs><style>.cls-1{fill:#191919;stroke:#191919;stroke-width:9px;}.cls-1,.cls-4{stroke-miterlimit:10;}.cls-2{font-size:85px;}.cls-2,.cls-3,.cls-5{fill:#fff;}.cls-2,.cls-3{font-family:SourceSansPro-Bold, Source Sans Pro;font-weight:700;}.cls-3{font-size:320.97px;letter-spacing:0em;}.cls-4{fill:none;stroke:#fff;stroke-width:10px;}</style></defs><polygon class="cls-1" points="443.77 362.14 443.77 137.86 249.54 25.73 55.31 137.86 55.31 362.14 249.54 474.27 443.77 362.14"/><g id="text"><text class="cls-2" transform="translate(302.5 200.08)">4<tspan x="0" y="78">N</tspan><tspan x="0" y="156">P</tspan></text><text class="cls-3" transform="translate(64.45 355.5)">R</text><line class="cls-4" x1="279.24" y1="107.35" x2="279.24" y2="392.65"/></g><g id="histogram"><rect class="cls-5" x="367" y="168" width="82" height="10"/><rect class="cls-5" x="395.28" y="154" width="53.72" height="10"/><rect class="cls-5" x="417.9" y="182" width="31.1" height="10"/><rect class="cls-5" x="408" y="196" width="41" height="10"/><rect class="cls-5" x="392.45" y="210" width="56.55" height="10"/><rect class="cls-5" x="430.62" y="224" width="18.38" height="10"/><rect class="cls-5" x="381.14" y="238" width="67.86" height="10"/><rect class="cls-5" x="409.41" y="252" width="39.59" height="10"/><rect class="cls-5" x="423.55" y="266" width="25.45" height="10"/><rect class="cls-5" x="393.86" y="280" width="55.14" height="10"/><rect class="cls-5" x="430.62" y="294" width="18.38" height="10"/><rect class="cls-5" x="417.9" y="308" width="31.1" height="10"/><rect class="cls-5" x="393.86" y="322" width="55.14" height="10"/><rect class="cls-5" x="426.38" y="336" width="22.62" height="10"/></g></svg>